<svg width="40" height="40" viewBox="0 0 40 40" fill="none" xmlns="http://www.w3.org/2000/svg">
<rect width="40" height="40" rx="20" fill="white"/>
<path fill-rule="evenodd" clip-rule="evenodd" d="M19.7607 11.2601C19.7132 11.268 19.5421 11.2915 19.3805 11.3123C18.7646 11.3915 18.0264 11.619 17.4406 11.9101C16.7422 12.2572 16.2273 12.6238 15.6838 13.1608C14.7029 14.1302 14.0946 15.2969 13.8244 16.7272C13.7708 17.0107 13.7646 17.5276 13.755 22.4821C13.7445 27.9158 13.7446 27.9258 13.816 28.1147C13.8978 28.3309 14.0899 28.5439 14.3066 28.6583C14.4544 28.7364 14.4607 28.7367 16.0966 28.7466C17.7892 28.7567 17.8519 28.7524 17.9183 28.6207C17.9336 28.5905 17.9538 28.2066 17.9633 27.7677L17.9806 26.9696L18.5682 27.3818C18.8914 27.6085 19.2803 27.8564 19.4324 27.9327C20.0499 28.2426 20.6468 28.2426 21.2644 27.9327C21.4164 27.8564 21.8053 27.6085 22.1285 27.3818L22.7161 26.9696L22.7334 27.7522C22.7482 28.4232 22.7594 28.5479 22.8116 28.6266C22.8451 28.6772 22.9073 28.7271 22.9499 28.7376C22.9924 28.7481 23.7505 28.7522 24.6345 28.7467C26.2344 28.7367 26.2425 28.7363 26.3902 28.6583C26.6068 28.5439 26.799 28.3309 26.8807 28.1147C26.9521 27.9258 26.9522 27.9158 26.9417 22.4821C26.9321 17.5276 26.9259 17.0107 26.8723 16.7272C26.6021 15.2969 25.9938 14.1302 25.0129 13.1608C24.0193 12.1789 22.8092 11.5595 21.4199 11.3216C21.1409 11.2738 19.9447 11.2295 19.7607 11.2601ZM19.1543 16.7108C19.6956 17.7773 20.6163 18.7855 21.6657 19.4612C22.5889 20.0554 23.7553 20.5087 24.8556 20.7008C25.0057 20.727 25.1308 20.7527 25.1337 20.7577C25.1365 20.7628 25.1279 21.045 25.1147 21.3847C25.0378 23.3534 24.6118 24.5782 23.6973 25.4608C23.3191 25.8257 23.0604 26.0145 21.4026 27.1352C20.9184 27.4626 20.7247 27.5363 20.3484 27.5363C19.972 27.5363 19.7783 27.4626 19.2941 27.1352C17.6031 25.992 17.3067 25.7735 16.9334 25.3947C16.6126 25.0691 16.4308 24.8136 16.2208 24.3927C15.7728 23.4947 15.5802 22.4358 15.5739 20.8354C15.5708 20.0416 15.6 19.7947 15.7499 19.3475C15.9201 18.8401 16.2782 18.2777 16.656 17.9246C16.8837 17.7118 17.3907 17.3399 17.8251 17.067C18.1007 16.8939 18.9609 16.4059 18.9905 16.4059C18.9955 16.4059 19.0692 16.5431 19.1543 16.7108Z" fill="#929292"/>
</svg>
